<?xml version="1.0" standalone="no"?>
<!DOCTYPE svg PUBLIC "-//W3C//DTD SVG 20010904//EN"
 "http://www.w3.org/TR/2001/REC-SVG-20010904/DTD/svg10.dtd">
<svg version="1.0" xmlns="http://www.w3.org/2000/svg"
 width="512.000000pt" height="512.000000pt" viewBox="0 0 512.000000 512.000000"
 preserveAspectRatio="xMidYMid meet">

<g transform="translate(0.000000,512.000000) scale(0.100000,-0.100000)"
fill="#ffffff" stroke="none">
<path d="M3290 4465 c-332 -53 -645 -237 -838 -494 -82 -109 -155 -228 -154
-254 0 -12 27 -66 61 -120 33 -54 61 -100 61 -103 0 -2 -58 -4 -128 -4 -120 0
-130 -1 -149 -22 -26 -29 -677 -1133 -709 -1203 -14 -29 -27 -82 -30 -117 -11
-111 10 -166 160 -416 74 -123 136 -220 139 -215 153 260 1707 2890 1723 2915
13 21 24 40 24 43 0 8 -70 4 -160 -10z"/>
<path d="M2716 2993 c-1203 -2035 -1207 -2041 -1217 -2076 -5 -18 -9 -82 -9
-143 0 -87 3 -114 15 -124 8 -7 20 -10 27 -7 7 3 118 183 247 401 l233 396
167 0 c230 0 307 25 403 128 42 46 318 505 318 531 0 7 -29 62 -65 122 -36 60
-65 111 -65 114 0 3 63 5 139 5 l140 0 19 28 c17 25 434 727 494 832 14 25 42
86 61 135 115 288 123 600 24 890 -26 75 -78 185 -87 185 -3 0 -383 -638 -844
-1417z"/>
</g>
</svg>
