<svg width="512" height="512" viewBox="0 0 512 512" fill="none" xmlns="http://www.w3.org/2000/svg">
<path d="M171 117C173.19 147.975 174.664 178.959 175.5 210C175.531 211.129 175.563 212.257 175.595 213.42C178.338 315.112 178.338 315.112 150.189 346.469C145.433 351.431 140.351 355.881 135 360.188C134.139 360.882 133.278 361.576 132.391 362.291C121.876 370.624 110.9 377.813 99 384C99.9445 385.27 100.891 386.539 101.837 387.807C102.627 388.867 102.627 388.867 103.433 389.948C110.223 398.839 118.141 406.215 127 413C133.237 408.206 137.793 402.428 142.55 396.226C157.086 377.344 172.597 359.306 188.562 341.625C189.255 340.856 189.947 340.087 190.661 339.295C226.41 299.727 259.375 271.104 314.363 268.233C329.315 267.568 344.191 268.02 359.125 268.875C360.602 268.957 360.602 268.957 362.109 269.041C387.564 270.488 412.803 273.114 438 277C436.806 282.133 434.179 286.18 431.5 290.688C430.928 291.652 430.355 292.617 429.765 293.611C415.477 317.368 399.102 339.931 381.424 361.272C380.139 362.831 378.873 364.405 377.609 365.98C372.587 372.24 367.257 378.139 361.781 384C359.589 386.35 357.463 388.744 355.375 391.188C326.189 424.643 283.588 444.677 239.625 448.625C201.922 451.105 166.443 441.864 134.988 420.98C132.364 419.241 129.705 417.609 127 416C126.526 416.477 126.052 416.953 125.564 417.444C114.029 429.045 102.486 440.638 90.9338 452.222C85.3473 457.824 79.7636 463.428 74.1865 469.04C69.3249 473.931 64.4579 478.818 59.5846 483.698C57.005 486.281 54.4282 488.867 51.8576 491.46C48.986 494.355 46.1027 497.239 43.2183 500.122C42.3702 500.981 41.5222 501.84 40.6484 502.725C34.7863 508.556 30.2261 512.427 21.625 512.438C15.9195 512.275 11.4846 511.679 7 508C2.02571 502.578 -0.148726 498.236 -0.375 490.812C-0.448477 489.182 -0.448477 489.182 -0.523438 487.52C0.778626 478.765 7.88559 472.696 13.9211 466.738C14.8094 465.85 15.6978 464.961 16.613 464.045C19.0308 461.629 21.4551 459.22 23.8825 456.813C26.425 454.29 28.9589 451.757 31.4938 449.226C36.2865 444.443 41.0868 439.667 45.8899 434.894C51.3614 429.456 56.8243 424.01 62.2866 418.562C73.5149 407.365 84.7539 396.179 96 385C95.3829 383.91 94.7657 382.82 94.1299 381.697C93.7827 381.084 93.4356 380.47 93.0779 379.839C91.4249 377.019 89.5748 374.336 87.75 371.625C72.3176 347.933 63.8721 319.209 63 291C62.96 290.02 62.9201 289.041 62.8789 288.031C61.9648 245.445 78.0284 202.544 107.444 171.61C110.952 167.98 114.502 164.391 118.062 160.812C118.818 160.052 119.574 159.291 120.353 158.507C125.074 153.8 129.934 149.332 135 145C136.118 144.027 137.235 143.053 138.352 142.078C144.28 136.943 150.271 131.91 156.438 127.062C156.992 126.626 157.546 126.19 158.118 125.741C169.339 117 169.339 117 171 117Z" fill="#1C1C1C"/>
<path d="M480.418 17.8243C494.03 29.295 502.962 42.222 509 59C509.34 59.9424 509.68 60.8847 510.031 61.8555C515.442 80.4165 512.525 100.883 507 119C506.587 120.381 506.175 121.762 505.763 123.143C494.174 161.815 479.282 198.515 462 235C410.85 235 359.7 235 307 235C313.749 227.126 313.749 227.126 316.207 224.686C316.766 224.129 317.325 223.571 317.901 222.996C318.788 222.12 318.788 222.12 319.692 221.226C320.332 220.589 320.972 219.953 321.631 219.297C323.008 217.927 324.386 216.558 325.765 215.19C327.95 213.023 330.13 210.853 332.31 208.681C338.503 202.513 344.702 196.35 350.905 190.191C354.709 186.414 358.508 182.631 362.305 178.846C363.749 177.408 365.195 175.972 366.643 174.538C368.665 172.535 370.681 170.526 372.696 168.515C373.293 167.927 373.89 167.339 374.505 166.733C379.85 161.375 382.592 156.947 383.375 149.375C383.26 143.232 380.638 137.562 376.238 133.289C371.198 129.752 366.088 128.702 360 129C349.853 130.957 343.304 138.898 336.396 145.939C335.058 147.28 333.718 148.621 332.377 149.96C328.757 153.583 325.155 157.224 321.556 160.868C317.786 164.68 313.998 168.475 310.211 172.271C303.05 179.456 295.904 186.655 288.764 193.86C278.263 204.455 267.74 215.028 257.217 225.6C255.667 227.158 254.117 228.715 252.567 230.272C251.811 231.032 251.055 231.791 250.276 232.574C245.769 237.103 241.267 241.636 236.769 246.172C233.981 248.984 231.191 251.793 228.401 254.603C227.102 255.911 225.804 257.221 224.508 258.531C222.746 260.311 220.981 262.088 219.216 263.864C218.696 264.39 218.177 264.917 217.642 265.459C216.447 266.659 215.226 267.832 214 269C213.67 269 213.34 269 213 269C212.602 245.461 212.303 221.922 212.119 198.38C212.031 187.449 211.912 176.519 211.717 165.589C211.548 156.059 211.438 146.53 211.4 136.999C211.378 131.954 211.326 126.913 211.202 121.869C211.086 117.114 211.052 112.365 211.077 107.609C211.072 105.87 211.039 104.131 210.973 102.394C210.59 91.7008 210.59 91.7008 213 87C217.185 82.5465 222.546 79.7277 227.962 77.0247C230.686 75.6548 233.277 74.086 235.883 72.504C237.626 71.5167 239.374 70.5362 241.125 69.5625C242.575 68.7512 242.575 68.7512 244.055 67.9234C254.591 62.0629 265.238 56.4366 276 51C277.144 50.42 278.288 49.8399 279.467 49.2422C316.145 30.7136 354.511 16.622 393.882 4.92778C395.76 4.36882 397.637 3.80219 399.509 3.22075C427.542 -5.41853 457.297 -0.0273724 480.418 17.8243Z" fill="#1C1C1C"/>
</svg>
