<?xml version="1.0" standalone="no"?>
<!DOCTYPE svg PUBLIC "-//W3C//DTD SVG 20010904//EN"
 "http://www.w3.org/TR/2001/REC-SVG-20010904/DTD/svg10.dtd">
<svg version="1.0" xmlns="http://www.w3.org/2000/svg"
 width="512.000000pt" height="512.000000pt" viewBox="0 0 512.000000 512.000000"
 preserveAspectRatio="xMidYMid meet">

<g transform="translate(0.000000,512.000000) scale(0.100000,-0.100000)"
fill="#ffffff" stroke="none">
<path d="M747 4921 c-133 -217 -162 -272 -216 -408 -68 -173 -112 -348 -148
-593 -28 -193 -25 -716 5 -931 110 -778 383 -1407 845 -1944 349 -406 767
-687 1186 -798 109 -29 127 -30 311 -31 174 -1 204 2 278 22 100 27 219 85
290 142 l53 41 117 -65 c283 -158 571 -263 867 -316 113 -20 383 -46 405 -38
7 2 -109 62 -256 133 -528 256 -909 498 -1314 834 -389 322 -790 728 -1169
1184 -68 81 -125 147 -127 147 -4 0 -6 7 37 -125 150 -463 542 -1028 970
-1401 57 -49 119 -103 138 -120 l35 -32 -42 -21 c-103 -53 -294 -68 -454 -37
-423 82 -887 428 -1249 931 -192 266 -358 610 -458 945 -37 125 -83 310 -76
310 2 0 144 -49 316 -110 172 -60 314 -109 315 -107 1 1 -154 134 -345 294
l-348 293 -6 97 c-10 148 -8 438 3 554 12 117 43 308 63 384 l14 50 28 -55
c103 -203 306 -435 540 -617 139 -108 236 -173 612 -408 166 -104 357 -228
425 -276 l123 -88 131 -421 c72 -231 133 -422 136 -425 2 -3 10 91 17 208 6
116 15 245 18 286 l6 75 44 -50 c285 -319 458 -634 509 -925 12 -68 15 -132
12 -231 l-4 -137 147 -101 147 -100 24 92 c20 82 23 117 23 298 0 188 -3 213
-27 310 -39 156 -73 250 -143 395 -124 256 -299 492 -549 740 -241 239 -401
357 -898 663 -152 94 -305 190 -340 213 -342 231 -547 444 -677 704 -67 134
-103 246 -167 518 -29 126 -55 231 -57 234 -3 2 -57 -81 -120 -186z"/>
</g>
</svg>
